<svg id="svg" version="1.1" xmlns="http://www.w3.org/2000/svg" xmlns:xlink="http://www.w3.org/1999/xlink" width="400" height="400" viewBox="0, 0, 400,400"><g id="svgg"><path id="path0" d="M134.603 118.272 C 131.029 118.433,129.374 118.966,131.242 119.355 C 135.861 120.317,149.165 119.805,148.068 118.708 C 147.637 118.277,139.989 118.030,134.603 118.272 M266.500 118.284 C 264.695 118.516,264.877 119.024,266.952 119.546 C 268.184 119.856,270.175 119.873,273.652 119.603 C 276.374 119.391,279.131 119.214,279.780 119.209 C 280.478 119.204,280.805 119.057,280.580 118.850 C 280.170 118.472,268.640 118.008,266.500 118.284 M242.176 127.481 C 237.200 130.822,236.736 131.691,238.333 134.675 C 238.743 135.441,241.523 136.400,243.331 136.400 C 244.189 136.400,251.200 131.654,251.200 131.073 C 251.200 130.161,249.312 128.403,247.497 127.624 C 244.521 126.348,243.889 126.331,242.176 127.481 M104.278 129.215 C 102.504 130.777,102.400 130.980,102.400 132.901 C 102.400 136.715,103.211 140.072,104.425 141.287 C 105.915 142.776,105.989 142.745,107.595 139.942 C 109.363 136.856,112.302 134.163,115.724 132.496 C 117.196 131.779,118.400 131.111,118.400 131.013 C 118.400 130.499,114.713 128.820,112.800 128.463 C 106.853 127.352,106.343 127.397,104.278 129.215 M229.997 138.857 C 227.296 142.564,227.200 142.950,227.204 150.084 C 227.208 157.238,227.751 159.363,230.135 161.558 L 231.176 162.516 231.625 161.358 C 232.306 159.602,236.083 145.200,236.289 143.573 C 236.933 138.497,232.617 135.262,229.997 138.857 M92.779 150.312 C 91.712 155.284,91.670 156.722,92.376 163.891 C 93.000 170.220,93.318 170.873,95.309 169.924 C 97.024 169.106,97.102 168.773,97.449 160.776 C 97.822 152.197,96.895 147.735,94.471 146.438 C 93.752 146.053,93.636 146.321,92.779 150.312 M104.696 173.781 C 102.236 174.644,101.282 176.080,100.641 179.891 C 100.200 182.512,105.449 187.543,108.104 187.044 C 112.077 186.299,112.780 182.603,109.786 178.200 C 106.243 172.991,106.447 173.168,104.696 173.781 M218.658 175.200 C 216.395 181.981,216.527 222.405,218.820 224.946 C 219.222 225.392,220.154 223.578,220.952 220.795 C 222.565 215.166,222.463 184.376,220.814 179.200 C 219.764 175.902,218.936 174.366,218.658 175.200 M116.525 189.226 C 114.818 189.740,113.528 191.431,113.681 192.956 C 114.203 198.197,135.251 199.430,139.727 194.481 C 141.157 192.899,132.706 190.671,118.800 188.964 C 118.250 188.897,117.226 189.014,116.525 189.226 M153.200 202.832 C 151.395 203.649,149.200 205.443,149.200 206.101 C 149.200 206.805,155.262 209.229,158.389 209.775 C 163.556 210.677,165.072 212.035,166.002 216.600 C 166.684 219.944,168.361 224.000,169.062 224.000 C 171.979 224.000,175.078 219.675,173.624 217.633 C 172.512 216.072,171.418 213.109,170.584 209.400 C 169.651 205.257,170.017 205.522,162.610 203.631 C 155.213 201.743,155.544 201.771,153.200 202.832 M179.823 230.089 C 178.816 231.526,178.942 243.459,179.977 244.700 C 181.696 246.760,181.987 245.725,181.995 237.526 C 182.001 229.775,181.425 227.802,179.823 230.089 M229.254 237.744 C 226.920 240.153,226.466 242.677,226.969 250.452 L 227.400 257.104 229.200 259.784 L 231.000 262.465 233.120 262.298 C 237.040 261.989,237.820 259.313,235.889 252.800 C 235.270 250.710,234.495 247.740,234.168 246.200 C 233.203 241.659,231.512 236.400,231.017 236.400 C 230.764 236.400,229.971 237.005,229.254 237.744 M167.936 253.853 C 167.476 254.891,166.866 256.860,166.580 258.228 C 165.469 263.537,163.640 265.416,158.278 266.756 C 156.562 267.184,154.712 267.828,154.165 268.186 L 153.172 268.837 153.967 269.954 C 155.513 272.124,155.580 272.140,160.363 271.441 C 162.773 271.088,165.554 270.800,166.542 270.800 C 169.427 270.800,170.618 269.526,170.936 266.097 C 171.150 263.795,171.895 260.381,173.014 256.566 C 173.307 255.567,171.700 253.479,169.938 252.568 L 168.771 251.964 167.936 253.853 M241.304 263.184 C 238.664 263.483,237.939 264.208,237.691 266.796 C 237.471 269.088,237.951 269.705,242.060 272.408 C 244.616 274.090,249.351 272.968,251.562 270.157 C 252.692 268.721,252.782 268.866,249.291 266.544 C 244.133 263.113,243.665 262.916,241.304 263.184 M127.800 279.604 C 126.700 279.801,124.584 280.167,123.099 280.417 C 121.613 280.668,120.482 281.008,120.584 281.174 C 121.366 282.439,142.630 282.446,143.411 281.182 C 143.910 280.375,130.865 279.056,127.800 279.604 M266.200 280.366 C 263.096 281.518,264.680 281.808,273.734 281.746 C 284.042 281.676,285.670 280.805,276.600 280.212 C 274.620 280.083,271.920 279.898,270.600 279.801 C 268.891 279.675,267.624 279.838,266.200 280.366 " stroke="none" fill="#ececfc" fill-rule="evenodd"></path><path id="path1" d="M0.000 200.000 L 0.000 400.000 200.000 400.000 L 400.000 400.000 400.000 200.000 L 400.000 0.000 200.000 0.000 L 0.000 0.000 0.000 200.000 M158.000 110.803 C 170.784 112.386,173.423 113.564,178.118 119.781 C 179.455 121.551,181.370 123.912,182.374 125.026 C 183.378 126.141,184.708 127.989,185.328 129.133 L 186.457 131.213 185.239 132.751 C 182.696 135.961,179.789 137.376,172.811 138.798 C 168.380 139.701,168.393 139.702,158.000 137.798 C 142.278 134.919,144.339 135.117,137.182 135.802 C 133.629 136.142,130.232 136.673,129.633 136.983 C 128.452 137.593,123.282 138.958,120.426 139.413 C 117.135 139.937,114.658 142.822,114.041 146.846 C 113.767 148.642,113.120 151.567,112.604 153.347 C 112.089 155.128,111.730 156.688,111.808 156.814 C 111.886 156.940,112.321 159.682,112.774 162.908 L 113.597 168.773 115.968 172.384 C 121.550 180.885,126.288 183.759,136.400 184.777 C 146.597 185.804,152.407 187.796,156.641 191.716 C 159.134 194.025,161.424 195.109,168.400 197.281 C 173.493 198.866,176.495 201.351,177.743 205.013 C 178.559 207.410,180.974 210.968,182.145 211.502 C 187.945 214.145,189.810 220.516,189.786 237.600 C 189.763 253.673,188.265 259.222,183.000 262.734 C 180.843 264.173,178.940 267.016,177.744 270.587 C 176.693 273.724,173.764 276.367,169.800 277.757 C 165.239 279.355,162.796 280.857,161.298 282.982 C 157.534 288.322,151.085 289.802,131.600 289.796 C 106.930 289.788,100.129 288.186,92.933 280.690 C 85.792 273.253,85.212 267.048,91.280 263.031 L 93.400 261.628 99.800 261.313 C 106.351 260.991,110.278 261.305,115.843 262.595 C 117.211 262.913,120.191 263.465,122.465 263.822 C 124.739 264.180,127.709 264.727,129.065 265.037 C 130.421 265.347,131.771 265.516,132.065 265.411 C 132.359 265.307,135.161 264.853,138.290 264.403 C 141.971 263.874,144.445 263.311,145.296 262.808 C 146.798 261.922,150.686 260.688,154.195 259.984 C 157.860 259.249,159.317 257.587,159.966 253.400 C 160.239 251.640,160.809 248.820,161.231 247.133 C 162.444 242.295,162.332 232.849,161.009 228.429 C 160.463 226.607,159.791 223.678,159.514 221.920 C 158.861 217.768,157.447 216.269,153.758 215.819 C 145.482 214.808,136.071 211.460,132.442 208.237 C 131.272 207.198,129.873 206.180,129.334 205.975 C 127.573 205.305,120.681 203.671,116.935 203.035 C 110.318 201.911,104.689 199.127,102.119 195.707 C 101.503 194.889,99.716 192.927,98.146 191.349 C 96.576 189.770,94.988 187.966,94.616 187.339 C 94.244 186.713,93.219 185.660,92.337 185.000 C 87.072 181.058,84.810 173.466,84.791 159.671 C 84.767 142.309,86.437 136.642,92.485 133.557 C 93.580 132.998,94.239 132.302,94.646 131.276 C 96.119 127.566,96.691 126.499,97.975 125.069 C 99.490 123.381,101.922 122.009,105.037 121.085 C 108.237 120.136,110.247 118.942,111.175 117.440 C 113.490 113.695,116.920 111.933,123.600 111.059 C 126.350 110.700,129.140 110.327,129.800 110.231 C 131.977 109.916,154.531 110.373,158.000 110.803 M288.800 110.991 C 300.777 112.496,308.855 118.697,312.451 129.147 C 315.267 137.332,299.288 141.650,284.285 136.758 C 282.918 136.313,278.844 135.624,275.231 135.228 L 268.661 134.508 266.548 135.475 C 265.386 136.007,262.583 136.904,260.318 137.467 C 257.776 138.100,255.342 139.008,253.957 139.841 C 252.723 140.582,250.520 141.747,249.061 142.430 C 244.906 144.374,243.783 145.765,241.988 151.181 C 240.410 155.942,240.191 157.360,237.993 177.000 C 236.346 191.721,236.228 203.304,237.586 217.000 C 240.525 246.629,241.001 248.669,246.175 253.804 C 250.214 257.814,255.342 260.913,259.400 261.798 C 261.160 262.182,264.077 263.017,265.881 263.653 L 269.162 264.809 275.081 264.371 C 278.337 264.130,282.170 263.666,283.600 263.340 C 297.017 260.276,307.346 260.809,310.905 264.747 C 314.010 268.185,313.828 271.995,310.216 279.168 C 306.321 286.902,295.972 289.977,273.780 289.995 C 255.888 290.009,248.860 288.210,244.862 282.591 C 244.177 281.629,243.292 281.034,241.846 280.565 C 238.900 279.610,234.670 277.332,232.700 275.641 C 231.765 274.839,230.315 273.674,229.477 273.053 C 226.066 270.525,222.800 264.969,221.354 259.236 C 219.693 252.649,219.354 251.903,216.999 249.635 C 211.574 244.409,210.275 236.987,209.751 208.200 C 209.073 171.001,211.127 155.161,217.338 149.708 C 219.200 148.073,219.387 147.659,221.009 141.565 C 223.963 130.469,231.039 122.808,241.446 119.435 C 242.892 118.966,243.777 118.372,244.462 117.409 C 246.410 114.671,250.079 112.399,254.400 111.254 C 259.318 109.951,279.302 109.798,288.800 110.991 " stroke="none" fill="#acacfc" fill-rule="evenodd"></path><path id="path2" d="M131.800 115.993 C 127.244 116.532,121.695 118.375,120.906 119.611 C 118.722 123.030,115.152 124.662,108.200 125.420 C 104.459 125.827,100.481 129.145,99.825 132.404 C 98.955 136.726,96.232 140.800,94.215 140.800 C 92.805 140.800,91.563 143.779,90.516 149.669 C 88.502 161.004,90.287 172.483,94.572 175.751 C 95.271 176.284,96.165 177.504,96.558 178.460 C 96.952 179.417,97.572 180.819,97.937 181.576 C 98.793 183.352,104.426 189.311,106.331 190.456 C 107.139 190.941,108.791 192.359,110.001 193.607 C 113.149 196.850,116.951 198.594,122.200 199.204 C 124.400 199.459,127.100 199.840,128.200 200.049 C 129.300 200.259,132.500 200.597,135.311 200.802 C 142.192 201.302,143.226 201.829,144.299 205.386 C 144.766 206.931,148.513 208.990,154.536 211.010 C 161.341 213.292,162.562 214.411,164.571 220.200 C 166.246 225.030,168.437 229.194,169.629 229.813 C 171.409 230.737,171.583 231.300,172.021 237.523 C 172.495 244.282,172.416 244.641,170.189 245.822 C 168.485 246.726,166.939 249.467,165.150 254.751 C 163.182 260.567,161.024 263.218,157.268 264.434 C 152.610 265.943,148.800 268.465,148.800 270.040 C 148.800 275.296,148.506 275.371,127.906 275.387 C 107.828 275.402,109.200 275.133,109.200 279.053 C 109.200 281.576,108.790 281.297,114.633 282.750 C 128.676 286.241,149.694 284.702,150.887 280.095 C 151.269 278.623,152.425 277.726,154.421 277.355 C 155.179 277.214,157.060 276.490,158.600 275.746 C 160.140 275.003,163.093 274.028,165.162 273.580 C 170.691 272.384,172.540 270.721,173.749 265.856 C 174.562 262.586,175.954 259.718,177.716 257.686 C 180.887 254.028,181.674 252.675,183.015 248.582 C 186.420 238.188,184.105 223.063,178.223 217.267 C 176.354 215.425,174.124 211.512,173.043 208.177 C 172.016 205.010,169.747 203.076,165.800 202.006 C 164.040 201.528,160.933 200.611,158.895 199.969 C 156.858 199.326,154.428 198.796,153.495 198.790 C 149.476 198.768,147.028 197.420,146.570 194.978 C 146.166 192.827,139.490 190.250,129.522 188.399 C 119.488 186.535,116.632 185.224,114.862 181.670 C 113.416 178.767,108.253 171.445,106.348 169.596 C 104.550 167.851,103.882 166.301,102.823 161.414 C 101.580 155.674,102.080 153.353,105.295 149.952 C 106.047 149.156,107.087 147.356,107.605 145.952 C 109.791 140.029,113.082 136.626,119.678 133.467 C 123.982 131.406,124.318 131.161,124.552 129.926 C 125.458 125.131,126.579 124.834,145.294 124.443 C 162.358 124.087,162.575 124.023,161.935 119.567 C 161.560 116.961,142.616 114.714,131.800 115.993 M261.577 116.515 C 255.251 117.556,254.380 118.001,253.703 120.532 C 253.060 122.936,251.903 123.527,247.077 123.915 C 238.191 124.631,225.945 137.211,224.776 146.824 C 224.523 148.899,223.959 151.947,223.521 153.598 C 223.084 155.249,222.557 157.294,222.351 158.142 C 221.836 160.265,221.089 161.593,219.628 162.982 C 213.080 169.208,213.044 229.856,219.583 237.182 C 220.242 237.919,221.038 239.260,221.353 240.161 C 223.180 245.394,224.055 248.660,224.633 252.400 C 225.544 258.303,226.855 260.900,231.164 265.343 C 240.245 274.707,241.744 275.738,246.840 276.131 C 251.125 276.462,252.724 277.266,254.000 279.732 C 255.276 282.198,255.416 282.266,261.717 283.459 C 270.541 285.131,282.755 284.487,293.300 281.794 C 294.482 281.492,294.713 280.147,294.159 276.800 L 293.928 275.400 280.664 275.376 C 262.883 275.344,260.196 274.785,257.955 270.653 C 256.825 268.567,251.948 264.917,244.673 260.709 C 240.029 258.024,238.278 254.529,235.400 242.210 C 233.431 233.785,231.482 228.070,229.368 224.528 C 225.106 217.384,225.564 178.337,229.983 172.168 C 231.477 170.083,233.207 165.085,235.235 157.000 C 239.005 141.969,239.513 140.961,244.612 138.393 C 251.117 135.117,255.600 131.681,255.600 129.971 C 255.600 125.384,258.996 124.418,276.418 124.055 C 290.219 123.767,290.368 123.734,291.251 120.789 C 291.878 118.694,291.853 118.676,286.386 117.261 C 279.677 115.525,269.456 115.217,261.577 116.515 M148.068 118.708 C 148.864 119.504,143.692 120.060,137.868 119.804 C 131.522 119.525,130.112 119.328,130.645 118.795 C 131.405 118.035,147.315 117.955,148.068 118.708 M280.580 118.850 C 280.805 119.057,280.478 119.204,279.780 119.209 C 279.131 119.214,276.374 119.391,273.652 119.603 C 268.824 119.978,265.200 119.625,265.200 118.778 C 265.200 118.022,279.755 118.090,280.580 118.850 M164.112 125.208 C 163.114 125.610,162.770 126.617,162.669 129.432 L 162.600 131.363 165.515 132.349 C 168.371 133.316,168.474 133.323,170.515 132.668 C 174.003 131.550,173.986 131.659,171.234 128.044 L 168.764 124.800 166.882 124.825 C 165.847 124.839,164.600 125.012,164.112 125.208 M247.497 127.624 C 249.312 128.403,251.200 130.161,251.200 131.073 C 251.200 131.654,244.189 136.400,243.331 136.400 C 238.263 136.400,235.665 132.540,238.945 129.881 C 243.475 126.209,243.922 126.091,247.497 127.624 M293.211 127.777 C 292.161 130.521,293.094 132.015,295.482 131.415 L 296.501 131.159 295.672 130.277 C 295.216 129.791,294.577 128.766,294.253 127.997 L 293.662 126.600 293.211 127.777 M112.800 128.463 C 114.713 128.820,118.400 130.499,118.400 131.013 C 118.400 131.111,117.196 131.779,115.724 132.496 C 112.302 134.163,109.363 136.856,107.595 139.942 C 105.989 142.745,105.915 142.776,104.425 141.287 C 103.595 140.456,103.197 139.509,102.856 137.554 C 101.345 128.874,103.661 126.756,112.800 128.463 M234.663 138.205 C 235.739 138.909,236.544 141.567,236.289 143.573 C 236.083 145.200,232.306 159.602,231.625 161.358 L 231.176 162.516 230.135 161.558 C 227.193 158.850,225.794 146.301,227.963 142.084 C 230.421 137.307,231.946 136.424,234.663 138.205 M95.985 148.071 C 97.309 150.248,97.743 154.014,97.449 160.776 C 97.102 168.773,97.024 169.106,95.309 169.924 C 93.318 170.873,93.000 170.220,92.376 163.891 C 91.670 156.722,91.712 155.284,92.779 150.312 C 93.792 145.593,94.273 145.257,95.985 148.071 M109.786 178.200 C 112.780 182.603,112.077 186.299,108.104 187.044 C 105.449 187.543,100.200 182.512,100.641 179.891 C 101.282 176.080,102.236 174.644,104.696 173.781 C 106.447 173.168,106.243 172.991,109.786 178.200 M220.814 179.200 C 222.463 184.376,222.565 215.166,220.952 220.795 C 220.154 223.578,219.222 225.392,218.820 224.946 C 216.527 222.405,216.395 181.981,218.658 175.200 C 218.936 174.366,219.764 175.902,220.814 179.200 M124.600 189.769 C 134.765 191.213,140.943 193.137,139.727 194.481 C 135.251 199.430,114.203 198.197,113.681 192.956 C 113.456 190.701,116.107 188.634,118.800 188.964 C 119.350 189.032,121.960 189.394,124.600 189.769 M162.610 203.631 C 170.017 205.522,169.651 205.257,170.584 209.400 C 171.418 213.109,172.512 216.072,173.624 217.633 C 175.078 219.675,171.979 224.000,169.062 224.000 C 168.361 224.000,166.684 219.944,166.002 216.600 C 165.072 212.035,163.556 210.677,158.389 209.775 C 155.262 209.229,149.200 206.805,149.200 206.101 C 149.200 205.034,153.900 202.033,155.610 202.009 C 155.945 202.004,159.095 202.734,162.610 203.631 M181.610 230.226 C 182.453 232.445,182.032 245.600,181.117 245.600 C 179.227 245.600,178.134 232.500,179.823 230.089 C 180.636 228.928,181.131 228.966,181.610 230.226 M232.525 239.900 C 233.101 241.825,233.841 244.660,234.168 246.200 C 234.495 247.740,235.270 250.710,235.889 252.800 C 237.820 259.313,237.040 261.989,233.120 262.298 L 231.000 262.465 229.200 259.784 L 227.400 257.104 226.969 250.452 C 226.466 242.677,226.920 240.153,229.254 237.744 C 231.109 235.830,231.354 235.991,232.525 239.900 M172.182 254.451 C 172.920 255.328,173.182 255.994,173.014 256.566 C 171.895 260.381,171.150 263.795,170.936 266.097 C 170.618 269.526,169.427 270.800,166.542 270.800 C 165.554 270.800,162.773 271.088,160.363 271.441 C 155.580 272.140,155.513 272.124,153.967 269.954 L 153.172 268.837 154.165 268.186 C 154.712 267.828,156.562 267.184,158.278 266.756 C 163.640 265.416,165.469 263.537,166.580 258.228 C 166.866 256.860,167.476 254.891,167.936 253.853 L 168.771 251.964 169.938 252.568 C 170.580 252.900,171.589 253.747,172.182 254.451 M249.291 266.544 C 252.782 268.866,252.692 268.721,251.562 270.157 C 249.351 272.968,244.616 274.090,242.060 272.408 C 237.951 269.705,237.471 269.088,237.691 266.796 C 237.939 264.208,238.664 263.483,241.304 263.184 C 243.665 262.916,244.133 263.113,249.291 266.544 M102.000 268.279 C 99.416 268.559,99.293 268.812,101.256 269.819 C 102.949 270.687,106.000 273.680,106.000 274.472 C 106.000 274.977,107.780 274.860,108.320 274.320 C 108.592 274.048,108.800 272.744,108.800 271.310 C 108.800 268.005,107.968 267.634,102.000 268.279 M139.493 280.261 C 141.745 280.611,143.507 281.026,143.411 281.182 C 142.630 282.446,121.366 282.439,120.584 281.174 C 120.482 281.008,121.613 280.668,123.099 280.417 C 124.584 280.167,126.700 279.801,127.800 279.604 C 130.172 279.179,133.887 279.388,139.493 280.261 M276.600 280.212 C 281.320 280.520,282.590 280.770,282.073 281.287 C 281.569 281.791,266.130 281.943,265.000 281.454 C 263.550 280.827,267.737 279.591,270.600 279.801 C 271.920 279.898,274.620 280.083,276.600 280.212 " stroke="none" fill="#dcdcfc" fill-rule="evenodd"></path><path id="path3" d="M129.800 110.231 C 129.140 110.327,126.350 110.700,123.600 111.059 C 116.920 111.933,113.490 113.695,111.175 117.440 C 110.247 118.942,108.237 120.136,105.037 121.085 C 101.922 122.009,99.490 123.381,97.975 125.069 C 96.691 126.499,96.119 127.566,94.646 131.276 C 94.239 132.302,93.580 132.998,92.485 133.557 C 86.437 136.642,84.767 142.309,84.791 159.671 C 84.810 173.466,87.072 181.058,92.337 185.000 C 93.219 185.660,94.244 186.713,94.616 187.339 C 94.988 187.966,96.576 189.770,98.146 191.349 C 99.716 192.927,101.503 194.889,102.119 195.707 C 104.689 199.127,110.318 201.911,116.935 203.035 C 120.681 203.671,127.573 205.305,129.334 205.975 C 129.873 206.180,131.272 207.198,132.442 208.237 C 136.071 211.460,145.482 214.808,153.758 215.819 C 157.447 216.269,158.861 217.768,159.514 221.920 C 159.791 223.678,160.463 226.607,161.009 228.429 C 162.332 232.849,162.444 242.295,161.231 247.133 C 160.809 248.820,160.239 251.640,159.966 253.400 C 159.317 257.587,157.860 259.249,154.195 259.984 C 150.686 260.688,146.798 261.922,145.296 262.808 C 144.445 263.311,141.971 263.874,138.290 264.403 C 135.161 264.853,132.359 265.307,132.065 265.411 C 131.771 265.516,130.421 265.347,129.065 265.037 C 127.709 264.727,124.739 264.180,122.465 263.822 C 120.191 263.465,117.211 262.913,115.843 262.595 C 110.278 261.305,106.351 260.991,99.800 261.313 L 93.400 261.628 91.280 263.031 C 85.212 267.048,85.792 273.253,92.933 280.690 C 100.129 288.186,106.930 289.788,131.600 289.796 C 151.085 289.802,157.534 288.322,161.298 282.982 C 162.796 280.857,165.239 279.355,169.800 277.757 C 173.764 276.367,176.693 273.724,177.744 270.587 C 178.940 267.016,180.843 264.173,183.000 262.734 C 188.265 259.222,189.763 253.673,189.786 237.600 C 189.810 220.516,187.945 214.145,182.145 211.502 C 180.974 210.968,178.559 207.410,177.743 205.013 C 176.495 201.351,173.493 198.866,168.400 197.281 C 161.424 195.109,159.134 194.025,156.641 191.716 C 152.407 187.796,146.597 185.804,136.400 184.777 C 126.288 183.759,121.550 180.885,115.968 172.384 L 113.597 168.773 112.774 162.908 C 112.321 159.682,111.886 156.940,111.808 156.814 C 111.730 156.688,112.089 155.128,112.604 153.347 C 113.120 151.567,113.767 148.642,114.041 146.846 C 114.658 142.822,117.135 139.937,120.426 139.413 C 123.282 138.958,128.452 137.593,129.633 136.983 C 130.232 136.673,133.629 136.142,137.182 135.802 C 144.339 135.117,142.278 134.919,158.000 137.798 C 168.393 139.702,168.380 139.701,172.811 138.798 C 179.789 137.376,182.696 135.961,185.239 132.751 L 186.457 131.213 185.328 129.133 C 184.708 127.989,183.378 126.141,182.374 125.026 C 181.370 123.912,179.455 121.551,178.118 119.781 C 173.423 113.564,170.784 112.386,158.000 110.803 C 154.531 110.373,131.977 109.916,129.800 110.231 M261.000 110.416 C 252.462 111.058,247.483 113.164,244.462 117.409 C 243.777 118.372,242.892 118.966,241.446 119.435 C 231.039 122.808,223.963 130.469,221.009 141.565 C 219.387 147.659,219.200 148.073,217.338 149.708 C 211.127 155.161,209.073 171.001,209.751 208.200 C 210.275 236.987,211.574 244.409,216.999 249.635 C 219.354 251.903,219.693 252.649,221.354 259.236 C 222.800 264.969,226.066 270.525,229.477 273.053 C 230.315 273.674,231.765 274.839,232.700 275.641 C 234.670 277.332,238.900 279.610,241.846 280.565 C 243.292 281.034,244.177 281.629,244.862 282.591 C 248.860 288.210,255.888 290.009,273.780 289.995 C 295.972 289.977,306.321 286.902,310.216 279.168 C 313.828 271.995,314.010 268.185,310.905 264.747 C 307.346 260.809,297.017 260.276,283.600 263.340 C 282.170 263.666,278.337 264.130,275.081 264.371 L 269.162 264.809 265.881 263.653 C 264.077 263.017,261.160 262.182,259.400 261.798 C 255.342 260.913,250.214 257.814,246.175 253.804 C 241.001 248.669,240.525 246.629,237.586 217.000 C 236.615 207.201,236.372 195.331,236.990 187.854 C 237.662 179.736,237.822 178.224,239.823 161.200 C 241.137 150.013,243.615 144.979,249.061 142.430 C 250.520 141.747,252.723 140.582,253.957 139.841 C 255.342 139.008,257.776 138.100,260.318 137.467 C 262.583 136.904,265.386 136.007,266.548 135.475 L 268.661 134.508 275.231 135.228 C 278.844 135.624,282.918 136.313,284.285 136.758 C 299.288 141.650,315.267 137.332,312.451 129.147 C 309.848 121.581,302.891 114.525,295.800 112.259 C 290.623 110.604,271.771 109.606,261.000 110.416 M149.000 114.604 C 159.187 115.560,166.277 117.428,168.396 119.712 C 169.513 120.917,177.200 131.077,177.200 131.350 C 177.200 132.070,170.294 134.595,168.400 134.567 C 165.450 134.523,158.595 131.953,157.200 130.368 C 153.713 126.405,132.293 126.045,128.800 129.890 C 127.068 131.796,125.060 132.996,121.266 134.390 C 115.292 136.586,110.943 140.967,109.029 146.714 C 108.456 148.435,107.170 151.273,106.173 153.021 C 104.162 156.545,104.155 156.842,105.974 161.800 C 106.377 162.900,106.924 164.851,107.190 166.136 C 107.568 167.972,108.196 169.169,110.122 171.731 C 111.470 173.523,113.530 176.522,114.699 178.395 C 118.317 184.191,119.567 184.931,129.246 187.004 C 142.138 189.765,146.503 191.322,149.770 194.326 C 150.666 195.150,151.940 196.029,152.600 196.278 C 154.525 197.004,166.040 200.698,167.897 201.185 C 170.060 201.751,173.580 205.145,174.344 207.400 C 175.351 210.370,177.721 214.157,180.049 216.514 C 188.006 224.570,188.094 249.777,180.194 258.000 C 177.784 260.509,175.996 263.556,174.957 266.921 C 173.647 271.166,171.002 273.504,165.805 275.010 C 161.560 276.240,159.669 277.165,156.721 279.452 C 148.166 286.090,131.179 288.058,114.199 284.380 C 105.711 282.540,105.050 282.202,103.020 278.648 C 101.504 275.993,98.807 273.500,96.018 272.176 C 90.123 269.376,91.292 267.761,99.949 266.746 L 106.367 265.993 110.084 267.185 C 112.496 267.959,114.528 268.926,115.875 269.940 C 118.207 271.696,118.592 271.796,125.999 272.570 C 129.991 272.988,132.721 273.034,136.958 272.757 C 144.262 272.279,144.086 272.333,145.732 270.041 C 147.714 267.283,149.368 266.236,156.420 263.279 C 160.347 261.632,162.468 258.928,164.169 253.400 C 164.778 251.420,166.006 248.392,166.898 246.672 L 168.518 243.544 168.243 237.361 C 167.985 231.589,167.894 231.054,166.862 229.289 C 165.564 227.068,164.335 224.059,163.182 220.274 C 162.537 218.156,161.933 217.119,160.476 215.629 C 158.591 213.702,157.801 213.316,152.227 211.597 C 148.461 210.436,142.393 207.372,140.091 205.468 C 137.358 203.209,135.135 202.574,123.177 200.638 C 116.057 199.486,112.370 197.952,108.895 194.698 C 107.633 193.516,106.060 192.145,105.400 191.652 C 101.985 189.102,97.081 183.574,95.241 180.200 C 94.761 179.320,93.665 177.638,92.806 176.463 C 89.600 172.078,88.874 169.484,88.581 161.376 C 88.111 148.350,89.543 142.561,94.227 138.559 C 96.528 136.593,97.543 135.032,98.415 132.113 C 99.413 128.773,104.956 124.000,107.836 124.000 C 110.560 124.000,114.172 122.313,116.400 120.000 C 119.614 116.664,125.634 114.854,135.000 114.407 C 138.080 114.260,141.050 114.109,141.600 114.072 C 142.150 114.034,145.480 114.273,149.000 114.604 M282.600 114.839 C 292.970 116.601,295.501 117.725,296.738 121.118 C 297.943 124.424,300.588 127.282,304.059 129.030 C 308.638 131.335,308.085 131.835,299.860 132.830 L 293.800 133.563 291.000 132.515 C 289.189 131.837,287.687 130.942,286.747 129.981 C 282.113 125.244,265.991 125.457,260.311 130.330 C 259.590 130.949,258.370 131.696,257.600 131.991 C 256.830 132.286,255.750 132.924,255.200 133.408 C 253.668 134.756,249.748 137.274,246.200 139.189 C 242.120 141.391,240.984 142.461,240.034 145.000 C 238.797 148.308,236.909 155.088,236.026 159.400 C 235.576 161.600,234.841 164.570,234.395 166.000 C 233.948 167.430,233.212 170.490,232.760 172.800 C 232.307 175.110,231.609 177.990,231.209 179.200 C 228.521 187.330,228.422 208.559,231.025 218.400 C 231.346 219.610,232.157 223.030,232.829 226.000 C 233.501 228.970,234.482 232.930,235.008 234.800 C 235.534 236.670,236.232 239.640,236.560 241.400 C 238.458 251.613,241.133 256.926,245.745 259.646 C 247.315 260.572,250.400 262.523,252.600 263.982 C 254.800 265.441,257.446 266.954,258.479 267.343 C 259.513 267.732,261.273 268.778,262.390 269.668 C 265.312 271.995,267.732 272.804,271.704 272.783 C 280.488 272.736,285.950 271.645,287.837 269.559 C 289.915 267.263,305.203 266.014,306.995 267.994 C 308.190 269.315,307.094 271.520,304.584 272.844 C 301.312 274.570,300.262 275.880,298.448 280.502 C 296.909 284.425,276.301 287.133,262.800 285.187 C 255.880 284.189,254.502 283.632,250.923 280.385 C 249.280 278.895,248.278 278.352,246.123 277.784 C 241.515 276.570,236.220 273.329,233.902 270.304 C 233.352 269.587,231.561 267.650,229.922 266.000 C 226.285 262.337,224.856 259.512,223.426 253.151 C 222.658 249.736,221.759 247.252,219.826 243.200 C 214.409 231.847,213.800 227.482,213.800 200.000 C 213.800 173.027,214.646 166.799,219.602 157.310 C 221.877 152.953,222.517 151.121,223.582 145.914 C 225.712 135.494,236.211 124.653,246.756 121.983 C 247.919 121.689,249.203 120.894,250.556 119.629 C 255.693 114.828,269.974 112.693,282.600 114.839 " stroke="none" fill="#ccccfc" fill-rule="evenodd"></path><path id="path4" d="M135.000 114.407 C 125.634 114.854,119.614 116.664,116.400 120.000 C 114.172 122.313,110.560 124.000,107.836 124.000 C 104.956 124.000,99.413 128.773,98.415 132.113 C 97.543 135.032,96.528 136.593,94.227 138.559 C 86.826 144.882,85.991 167.141,92.806 176.463 C 93.665 177.638,94.761 179.320,95.241 180.200 C 97.081 183.574,101.985 189.102,105.400 191.652 C 106.060 192.145,107.633 193.516,108.895 194.698 C 112.370 197.952,116.057 199.486,123.177 200.638 C 135.135 202.574,137.358 203.209,140.091 205.468 C 142.393 207.372,148.461 210.436,152.227 211.597 C 157.801 213.316,158.591 213.702,160.476 215.629 C 161.933 217.119,162.537 218.156,163.182 220.274 C 164.335 224.059,165.564 227.068,166.862 229.289 C 167.894 231.054,167.985 231.589,168.243 237.361 L 168.518 243.544 166.898 246.672 C 166.006 248.392,164.778 251.420,164.169 253.400 C 162.468 258.928,160.347 261.632,156.420 263.279 C 149.368 266.236,147.714 267.283,145.732 270.041 C 144.086 272.333,144.262 272.279,136.958 272.757 C 132.721 273.034,129.991 272.988,125.999 272.570 C 118.592 271.796,118.207 271.696,115.875 269.940 C 114.528 268.926,112.496 267.959,110.084 267.185 L 106.367 265.993 99.949 266.746 C 91.292 267.761,90.123 269.376,96.018 272.176 C 98.807 273.500,101.504 275.993,103.020 278.648 C 105.050 282.202,105.711 282.540,114.199 284.380 C 131.179 288.058,148.166 286.090,156.721 279.452 C 159.669 277.165,161.560 276.240,165.805 275.010 C 171.002 273.504,173.647 271.166,174.957 266.921 C 175.996 263.556,177.784 260.509,180.194 258.000 C 188.094 249.777,188.006 224.570,180.049 216.514 C 177.721 214.157,175.351 210.370,174.344 207.400 C 173.580 205.145,170.060 201.751,167.897 201.185 C 166.040 200.698,154.525 197.004,152.600 196.278 C 151.940 196.029,150.666 195.150,149.770 194.326 C 146.503 191.322,142.138 189.765,129.246 187.004 C 119.567 184.931,118.317 184.191,114.699 178.395 C 113.530 176.522,111.470 173.523,110.122 171.731 C 108.196 169.169,107.568 167.972,107.190 166.136 C 106.924 164.851,106.377 162.900,105.974 161.800 C 104.155 156.842,104.162 156.545,106.173 153.021 C 107.170 151.273,108.456 148.435,109.029 146.714 C 110.943 140.967,115.292 136.586,121.266 134.390 C 125.060 132.996,127.068 131.796,128.800 129.890 C 132.293 126.045,153.713 126.405,157.200 130.368 C 158.595 131.953,165.450 134.523,168.400 134.567 C 170.294 134.595,177.200 132.070,177.200 131.350 C 177.200 131.077,169.513 120.917,168.396 119.712 C 165.949 117.073,149.204 113.549,141.600 114.072 C 141.050 114.109,138.080 114.260,135.000 114.407 M262.200 114.888 C 255.458 115.745,254.137 116.282,250.556 119.629 C 249.203 120.894,247.919 121.689,246.756 121.983 C 236.211 124.653,225.712 135.494,223.582 145.914 C 222.517 151.121,221.877 152.953,219.602 157.310 C 214.646 166.799,213.800 173.027,213.800 200.000 C 213.800 227.482,214.409 231.847,219.826 243.200 C 221.759 247.252,222.658 249.736,223.426 253.151 C 224.856 259.512,226.285 262.337,229.922 266.000 C 231.561 267.650,233.352 269.587,233.902 270.304 C 236.220 273.329,241.515 276.570,246.123 277.784 C 248.278 278.352,249.280 278.895,250.923 280.385 C 254.502 283.632,255.880 284.189,262.800 285.187 C 276.301 287.133,296.909 284.425,298.448 280.502 C 300.262 275.880,301.312 274.570,304.584 272.844 C 307.094 271.520,308.190 269.315,306.995 267.994 C 305.203 266.014,289.915 267.263,287.837 269.559 C 285.950 271.645,280.488 272.736,271.704 272.783 C 267.732 272.804,265.312 271.995,262.390 269.668 C 261.273 268.778,259.513 267.732,258.479 267.343 C 257.446 266.954,254.800 265.441,252.600 263.982 C 250.400 262.523,247.315 260.572,245.745 259.646 C 241.133 256.926,238.458 251.613,236.560 241.400 C 236.232 239.640,235.534 236.670,235.008 234.800 C 234.482 232.930,233.501 228.970,232.829 226.000 C 232.157 223.030,231.346 219.610,231.025 218.400 C 228.422 208.559,228.521 187.330,231.209 179.200 C 231.609 177.990,232.307 175.110,232.760 172.800 C 233.212 170.490,233.948 167.430,234.395 166.000 C 234.841 164.570,235.576 161.600,236.026 159.400 C 236.909 155.088,238.797 148.308,240.034 145.000 C 240.984 142.461,242.120 141.391,246.200 139.189 C 249.748 137.274,253.668 134.756,255.200 133.408 C 255.750 132.924,256.830 132.286,257.600 131.991 C 258.370 131.696,259.590 130.949,260.311 130.330 C 265.991 125.457,282.113 125.244,286.747 129.981 C 287.687 130.942,289.189 131.837,291.000 132.515 L 293.800 133.563 299.860 132.830 C 308.085 131.835,308.638 131.335,304.059 129.030 C 300.588 127.282,297.943 124.424,296.738 121.118 C 295.636 118.096,294.794 117.550,289.220 116.239 C 279.873 114.041,271.978 113.646,262.200 114.888 M151.200 116.373 C 161.152 117.658,162.475 118.340,161.817 121.848 C 161.401 124.068,161.118 124.113,145.294 124.443 C 126.579 124.834,125.458 125.131,124.552 129.926 C 124.318 131.161,123.982 131.406,119.678 133.467 C 113.082 136.626,109.791 140.029,107.605 145.952 C 107.087 147.356,106.047 149.156,105.295 149.952 C 102.080 153.353,101.580 155.674,102.823 161.414 C 103.882 166.301,104.550 167.851,106.348 169.596 C 108.253 171.445,113.416 178.767,114.862 181.670 C 116.632 185.224,119.488 186.535,129.522 188.399 C 139.490 190.250,146.166 192.827,146.570 194.978 C 147.028 197.420,149.476 198.768,153.495 198.790 C 154.428 198.796,156.858 199.326,158.895 199.969 C 160.933 200.611,164.040 201.528,165.800 202.006 C 169.747 203.076,172.016 205.010,173.043 208.177 C 174.124 211.512,176.354 215.425,178.223 217.267 C 184.105 223.063,186.420 238.188,183.015 248.582 C 181.674 252.675,180.887 254.028,177.716 257.686 C 175.954 259.718,174.562 262.586,173.749 265.856 C 172.540 270.721,170.691 272.384,165.162 273.580 C 163.093 274.028,160.140 275.003,158.600 275.746 C 157.060 276.490,155.179 277.214,154.421 277.355 C 152.425 277.726,151.269 278.623,150.887 280.095 C 149.694 284.702,128.676 286.241,114.633 282.750 C 108.790 281.297,109.200 281.576,109.200 279.053 C 109.200 275.133,107.828 275.402,127.906 275.387 C 148.506 275.371,148.800 275.296,148.800 270.040 C 148.800 268.465,152.610 265.943,157.268 264.434 C 161.024 263.218,163.182 260.567,165.150 254.751 C 166.939 249.467,168.485 246.726,170.189 245.822 C 172.416 244.641,172.495 244.282,172.021 237.523 C 171.583 231.300,171.409 230.737,169.629 229.813 C 168.437 229.194,166.246 225.030,164.571 220.200 C 162.562 214.411,161.341 213.292,154.536 211.010 C 148.513 208.990,144.766 206.931,144.299 205.386 C 143.226 201.829,142.192 201.302,135.311 200.802 C 132.500 200.597,129.300 200.259,128.200 200.049 C 127.100 199.840,124.400 199.459,122.200 199.204 C 116.951 198.594,113.149 196.850,110.001 193.607 C 108.791 192.359,107.139 190.941,106.331 190.456 C 104.426 189.311,98.793 183.352,97.937 181.576 C 97.572 180.819,96.952 179.417,96.558 178.460 C 96.165 177.504,95.271 176.284,94.572 175.751 C 90.287 172.483,88.502 161.004,90.516 149.669 C 91.563 143.779,92.805 140.800,94.215 140.800 C 96.232 140.800,98.955 136.726,99.825 132.404 C 100.481 129.145,104.459 125.827,108.200 125.420 C 115.152 124.662,118.722 123.030,120.906 119.611 C 123.029 116.286,138.073 114.678,151.200 116.373 M286.386 117.261 C 291.853 118.676,291.878 118.694,291.251 120.789 C 290.368 123.734,290.219 123.767,276.418 124.055 C 258.996 124.418,255.600 125.384,255.600 129.971 C 255.600 131.681,251.117 135.117,244.612 138.393 C 239.513 140.961,239.005 141.969,235.235 157.000 C 233.207 165.085,231.477 170.083,229.983 172.168 C 225.564 178.337,225.106 217.384,229.368 224.528 C 231.482 228.070,233.431 233.785,235.400 242.210 C 238.278 254.529,240.029 258.024,244.673 260.709 C 251.948 264.917,256.825 268.567,257.955 270.653 C 260.196 274.785,262.883 275.344,280.664 275.376 L 293.928 275.400 294.159 276.800 C 294.713 280.147,294.482 281.492,293.300 281.794 C 282.755 284.487,270.541 285.131,261.717 283.459 C 255.416 282.266,255.276 282.198,254.000 279.732 C 252.724 277.266,251.125 276.462,246.840 276.131 C 241.744 275.738,240.245 274.707,231.164 265.343 C 226.855 260.900,225.544 258.303,224.633 252.400 C 224.055 248.660,223.180 245.394,221.353 240.161 C 221.038 239.260,220.242 237.919,219.583 237.182 C 213.044 229.856,213.080 169.208,219.628 162.982 C 221.089 161.593,221.836 160.265,222.351 158.142 C 222.557 157.294,223.084 155.249,223.521 153.598 C 223.959 151.947,224.523 148.899,224.776 146.824 C 225.474 141.079,226.891 138.678,233.403 132.200 C 240.179 125.459,242.062 124.319,247.077 123.915 C 251.903 123.527,253.060 122.936,253.703 120.532 C 254.380 118.001,255.251 117.556,261.577 116.515 C 269.456 115.217,279.677 115.525,286.386 117.261 M171.234 128.044 C 173.986 131.659,174.003 131.550,170.515 132.668 C 168.474 133.323,168.371 133.316,165.515 132.349 L 162.600 131.363 162.669 129.432 C 162.810 125.473,163.359 124.873,166.882 124.825 L 168.764 124.800 171.234 128.044 M295.672 130.277 L 296.501 131.159 295.482 131.415 C 293.094 132.015,292.161 130.521,293.211 127.777 L 293.662 126.600 294.253 127.997 C 294.577 128.766,295.216 129.791,295.672 130.277 M107.774 268.390 C 108.925 268.828,109.337 273.303,108.320 274.320 C 107.780 274.860,106.000 274.977,106.000 274.472 C 106.000 273.680,102.949 270.687,101.256 269.819 C 99.293 268.812,99.416 268.559,102.000 268.279 C 104.836 267.973,106.774 268.010,107.774 268.390 " stroke="none" fill="#d4d4fc" fill-rule="evenodd"></path></g></svg>